<svg viewBox="0 0 330 200" xmlns="http://www.w3.org/2000/svg"><g><g><g><g><g><line x1="72.34375" y1="170.9001345012085" x2="67.34375" y2="170.9001345012085" style="visibility: inherit;" fill="rgb(0, 0, 0)" stroke="rgb(204, 204, 204)" stroke-width="1px"></line><line x1="72.34375" y1="156.15393871093843" x2="67.34375" y2="156.15393871093843" style="visibility: inherit;" fill="rgb(0, 0, 0)" stroke="rgb(204, 204, 204)" stroke-width="1px"></line><line x1="72.34375" y1="141.40774292066837" x2="67.34375" y2="141.40774292066837" style="visibility: inherit;" fill="rgb(0, 0, 0)" stroke="rgb(204, 204, 204)" stroke-width="1px"></line><line x1="72.34375" y1="126.66154713039832" x2="67.34375" y2="126.66154713039832" style="visibility: inherit;" fill="rgb(0, 0, 0)" stroke="rgb(204, 204, 204)" stroke-width="1px"></line><line x1="72.34375" y1="111.91535134012827" x2="67.34375" y2="111.91535134012827" style="visibility: inherit;" fill="rgb(0, 0, 0)" stroke="rgb(204, 204, 204)" stroke-width="1px"></line><line x1="72.34375" y1="97.16915554985823" x2="67.34375" y2="97.16915554985823" style="visibility: inherit;" fill="rgb(0, 0, 0)" stroke="rgb(204, 204, 204)" stroke-width="1px"></line><line x1="72.34375" y1="82.42295975958815" x2="67.34375" y2="82.42295975958815" style="visibility: inherit;" fill="rgb(0, 0, 0)" stroke="rgb(204, 204, 204)" stroke-width="1px"></line><line x1="72.34375" y1="67.6767639693181" x2="67.34375" y2="67.6767639693181" style="visibility: inherit;" fill="rgb(0, 0, 0)" stroke="rgb(204, 204, 204)" stroke-width="1px"></line><line x1="72.34375" y1="52.930568179048045" x2="67.34375" y2="52.930568179048045" style="visibility: inherit;" fill="rgb(0, 0, 0)" stroke="rgb(204, 204, 204)" stroke-width="1px"></line><line x1="72.34375" y1="38.18437238877799" x2="67.34375" y2="38.18437238877799" style="visibility: inherit;" fill="rgb(0, 0, 0)" stroke="rgb(204, 204, 204)" stroke-width="1px"></line><line x1="72.34375" y1="23.43817659850795" x2="67.34375" y2="23.43817659850795" style="visibility: inherit;" fill="rgb(0, 0, 0)" stroke="rgb(204, 204, 204)" stroke-width="1px"></line><line x1="72.34375" y1="8.691980808237895" x2="67.34375" y2="8.691980808237895" style="visibility: inherit;" fill="rgb(0, 0, 0)" stroke="rgb(204, 204, 204)" stroke-width="1px"></line></g><g transform="translate(62.34375, 0)"><text x="0" y="170.9001345012085" dx="0em" dy="0.3em" style="text-anchor: end; visibility: inherit; font-family: Roboto, sans-serif; font-size: 12px; font-weight: 200;" fill="rgb(50, 49, 63)" stroke="none" stroke-width="1px">0</text><text x="0" y="156.15393871093843" dx="0em" dy="0.3em" style="text-anchor: end; visibility: hidden; font-family: Roboto, sans-serif; font-size: 12px; font-weight: 200;" fill="rgb(50, 49, 63)" stroke="none" stroke-width="1px">100</text><text x="0" y="141.40774292066837" dx="0em" dy="0.3em" style="text-anchor: end; visibility: inherit; font-family: Roboto, sans-serif; font-size: 12px; font-weight: 200;" fill="rgb(50, 49, 63)" stroke="none" stroke-width="1px">200</text><text x="0" y="126.66154713039832" dx="0em" dy="0.3em" style="text-anchor: end; visibility: hidden; font-family: Roboto, sans-serif; font-size: 12px; font-weight: 200;" fill="rgb(50, 49, 63)" stroke="none" stroke-width="1px">300</text><text x="0" y="111.91535134012827" dx="0em" dy="0.3em" style="text-anchor: end; visibility: inherit; font-family: Roboto, sans-serif; font-size: 12px; font-weight: 200;" fill="rgb(50, 49, 63)" stroke="none" stroke-width="1px">400</text><text x="0" y="97.16915554985823" dx="0em" dy="0.3em" style="text-anchor: end; visibility: hidden; font-family: Roboto, sans-serif; font-size: 12px; font-weight: 200;" fill="rgb(50, 49, 63)" stroke="none" stroke-width="1px">500</text><text x="0" y="82.42295975958815" dx="0em" dy="0.3em" style="text-anchor: end; visibility: inherit; font-family: Roboto, sans-serif; font-size: 12px; font-weight: 200;" fill="rgb(50, 49, 63)" stroke="none" stroke-width="1px">600</text><text x="0" y="67.6767639693181" dx="0em" dy="0.3em" style="text-anchor: end; visibility: hidden; font-family: Roboto, sans-serif; font-size: 12px; font-weight: 200;" fill="rgb(50, 49, 63)" stroke="none" stroke-width="1px">700</text><text x="0" y="52.930568179048045" dx="0em" dy="0.3em" style="text-anchor: end; visibility: inherit; font-family: Roboto, sans-serif; font-size: 12px; font-weight: 200;" fill="rgb(50, 49, 63)" stroke="none" stroke-width="1px">800</text><text x="0" y="38.18437238877799" dx="0em" dy="0.3em" style="text-anchor: end; visibility: hidden; font-family: Roboto, sans-serif; font-size: 12px; font-weight: 200;" fill="rgb(50, 49, 63)" stroke="none" stroke-width="1px">900</text><text x="0" y="23.43817659850795" dx="0em" dy="0.3em" style="text-anchor: end; visibility: inherit; font-family: Roboto, sans-serif; font-size: 12px; font-weight: 200;" fill="rgb(50, 49, 63)" stroke="none" stroke-width="1px">1e+3</text><text x="0" y="8.691980808237895" dx="0em" dy="0.3em" style="text-anchor: end; visibility: hidden; font-family: Roboto, sans-serif; font-size: 12px; font-weight: 200;" fill="rgb(50, 49, 63)" stroke="none" stroke-width="1px">1.1e+3</text></g><line x1="72.34375" y1="0" x2="72.34375" y2="178" fill="rgb(0, 0, 0)" stroke="rgb(204, 204, 204)" stroke-width="1px"></line></g></g><g transform="translate(72, 0)" clip-path="url(#clip_0)"><clipPath id="clip_0"><rect width="257" height="178"></rect></clipPath><g><g><g><line x1="5.592139817445436" y1="0" x2="5.592139817445436" y2="178" fill="rgb(0, 0, 0)" stroke="rgb(60, 60, 60)" stroke-width="1px" opacity="0.25"></line><line x1="41.167509752714615" y1="0" x2="41.167509752714615" y2="178" fill="rgb(0, 0, 0)" stroke="rgb(60, 60, 60)" stroke-width="1px" opacity="0.25"></line><line x1="76.74287968798377" y1="0" x2="76.74287968798377" y2="178" fill="rgb(0, 0, 0)" stroke="rgb(60, 60, 60)" stroke-width="1px" opacity="0.25"></line><line x1="112.31824962325297" y1="0" x2="112.31824962325297" y2="178" fill="rgb(0, 0, 0)" stroke="rgb(60, 60, 60)" stroke-width="1px" opacity="0.25"></line><line x1="147.89361955852215" y1="0" x2="147.89361955852215" y2="178" fill="rgb(0, 0, 0)" stroke="rgb(60, 60, 60)" stroke-width="1px" opacity="0.25"></line><line x1="183.46898949379133" y1="0" x2="183.46898949379133" y2="178" fill="rgb(0, 0, 0)" stroke="rgb(60, 60, 60)" stroke-width="1px" opacity="0.25"></line><line x1="219.0443594290605" y1="0" x2="219.0443594290605" y2="178" fill="rgb(0, 0, 0)" stroke="rgb(60, 60, 60)" stroke-width="1px" opacity="0.25"></line><line x1="254.6197293643297" y1="0" x2="254.6197293643297" y2="178" fill="rgb(0, 0, 0)" stroke="rgb(60, 60, 60)" stroke-width="1px" opacity="0.25"></line></g><g><line x1="0" y1="170.9001345012085" x2="257.65625" y2="170.9001345012085" fill="rgb(0, 0, 0)" stroke="rgb(60, 60, 60)" stroke-width="1px" opacity="0.25"></line><line x1="0" y1="156.15393871093843" x2="257.65625" y2="156.15393871093843" fill="rgb(0, 0, 0)" stroke="rgb(60, 60, 60)" stroke-width="1px" opacity="0.25"></line><line x1="0" y1="141.40774292066837" x2="257.65625" y2="141.40774292066837" fill="rgb(0, 0, 0)" stroke="rgb(60, 60, 60)" stroke-width="1px" opacity="0.25"></line><line x1="0" y1="126.66154713039832" x2="257.65625" y2="126.66154713039832" fill="rgb(0, 0, 0)" stroke="rgb(60, 60, 60)" stroke-width="1px" opacity="0.25"></line><line x1="0" y1="111.91535134012827" x2="257.65625" y2="111.91535134012827" fill="rgb(0, 0, 0)" stroke="rgb(60, 60, 60)" stroke-width="1px" opacity="0.25"></line><line x1="0" y1="97.16915554985823" x2="257.65625" y2="97.16915554985823" fill="rgb(0, 0, 0)" stroke="rgb(60, 60, 60)" stroke-width="1px" opacity="0.25"></line><line x1="0" y1="82.42295975958815" x2="257.65625" y2="82.42295975958815" fill="rgb(0, 0, 0)" stroke="rgb(60, 60, 60)" stroke-width="1px" opacity="0.25"></line><line x1="0" y1="67.6767639693181" x2="257.65625" y2="67.6767639693181" fill="rgb(0, 0, 0)" stroke="rgb(60, 60, 60)" stroke-width="1px" opacity="0.25"></line><line x1="0" y1="52.930568179048045" x2="257.65625" y2="52.930568179048045" fill="rgb(0, 0, 0)" stroke="rgb(60, 60, 60)" stroke-width="1px" opacity="0.25"></line><line x1="0" y1="38.18437238877799" x2="257.65625" y2="38.18437238877799" fill="rgb(0, 0, 0)" stroke="rgb(60, 60, 60)" stroke-width="1px" opacity="0.25"></line><line x1="0" y1="23.43817659850795" x2="257.65625" y2="23.43817659850795" fill="rgb(0, 0, 0)" stroke="rgb(60, 60, 60)" stroke-width="1px" opacity="0.25"></line><line x1="0" y1="8.691980808237895" x2="257.65625" y2="8.691980808237895" fill="rgb(0, 0, 0)" stroke="rgb(60, 60, 60)" stroke-width="1px" opacity="0.25"></line></g></g></g><g><g><line x1="0" y1="170.9001345012085" x2="257.65625" y2="170.9001345012085" fill="rgb(0, 0, 0)" stroke="rgb(153, 153, 153)" stroke-width="1.5px"></line></g></g><g><g><line x1="5.592139817445436" y1="0" x2="5.592139817445436" y2="178" fill="rgb(0, 0, 0)" stroke="rgb(153, 153, 153)" stroke-width="1.5px"></line></g></g><g><g><g><g><g><path stroke="rgb(51, 187, 238)" stroke-width="2px" d="M6.019044256668667,171.04388281590488L6.445948695891897,171.04378641796714L6.872853135115126,171.0435437874391L7.299757574338357,171.04291744185377L7.7266620135615875,171.04046919363174L8.153566452784817,171.0359450040034L8.580470892008048,171.03064489387398L9.007375331231277,171.01917529040617L9.43427977045451,171.01522910667234L9.861184209677738,171.01339405775502L10.288088648900969,171.00630725587632L10.714993088124197,171.00828078915293L11.141897527347428,170.9737513775461L11.568801966570659,170.8756029575837L11.995706405793888,170.8567838931912L12.42261084501712,170.83232538028912L12.849515284240349,170.86827672815343L13.27641972346358,170.91114412589042L13.703324162686808,170.92027990922676L14.130228601910039,170.91514471773047L14.55713304113327,170.86724279262253L14.9840374803565,170.89566053268874L15.41094191957973,170.83407199103635L15.83784635880296,170.84701589779456L16.264750798026192,170.78344053210782L16.69165523724942,170.77864944419713L17.11855967647265,170.75063385479118L17.54546411569588,170.58712194047294L17.97236855491911,170.5248415059115L19.67998631181203,170.4233798420647L20.106890751035262,170.51936326263962L21.38760406870495,170.7090264253699L21.81450850792818,170.49189789353807L28.218075096276635,169.93585358848762L28.644979535499864,169.79250218785842L29.498788413946322,169.30212199466L29.925692853169554,169.7526815719801L30.352597292392787,170.2110819235729L30.779501731616016,170.21878184545778L31.633310610062473,169.43613028628434L32.91402392773217,169.26818479531696L33.340928366955396,169.47259353411607L33.76783280617863,168.3419057667058L34.19473724540185,168.88255973560572L34.62164168462508,169.12041440799533L35.47545056307155,167.86180243112724L35.90235500229478,168.27187486175444L37.6099727591877,167.1101589549143L38.03687719841093,167.17746976746622L38.463781637634156,167.79825314226593L38.890686076857385,168.46640519482938L39.31759051608062,168.8948705591926L39.74449495530385,169.29842518335306L40.17139939452707,169.60904867195296L41.025208272973536,169.44455284204662L41.45211271219677,169.67176964951253L41.87901715142,170.21738208037524L42.30592159064322,168.00751920456696L44.440443786759374,168.29686360923762L44.86734822598261,168.69376314248845L45.29425266520584,166.3415881935042L45.721157104429075,166.68893380383992L46.148061543652304,166.65414515669738L46.574965982875526,167.09880126468326L47.00187042209876,167.59362713015545L47.42877486132199,167.12289749759427L49.13639261821491,165.37043504967863L49.56329705743814,164.7845466171143L50.84401037510783,165.72851914986367L51.270914814331064,166.19255222175008L52.12472369277752,167.7629537335429L52.55162813200075,168.43214790871664L53.405437010447216,168.61204334091886L53.832341449670444,166.71850347209758L54.6861503281169,165.748948155673L55.11305476734013,164.9718548726881L55.966863645786596,165.25408961915343L56.39376808500982,165.31625031163483L56.82067252423305,165.67217411311995L57.24757696345628,166.79929826745735L58.10138584190275,167.25593227342938L58.52829028112597,166.51901692131045L58.955194720349205,167.88847738572062L59.382099159572434,168.29761637163026L60.2359080380189,168.68199331863974L60.66281247724212,166.50561736178403L61.089716916465356,165.25134407053653L61.516621355688585,166.92141050852882L61.943525794911814,167.66579701761063L62.79733467335827,166.96057127207678L64.07804799102796,167.83171607378694L64.5049524302512,168.15495230891236L64.93185686947443,167.6665870014988L65.35876130869767,166.61834876644963L65.78566574792089,167.9709285285945L66.21257018714411,168.05911260357817L66.63947462636735,168.47523142951974L67.49328350481382,168.51117418356444L68.34709238326026,168.86210319325278L68.7739968224835,168.12433582141767L69.20090126170673,167.7183230789922L69.62780570092995,167.26638289128113L70.05471014015319,167.37257668753895L71.33542345782288,164.74714732829327L71.7623278970461,162.46561902730465L72.61613677549256,164.09491072077995L74.75065897160871,166.27615229358227L76.45827672850163,167.44909052526768L76.88518116772487,166.471763405729L77.3120856069481,165.5534526236701L77.73899004617132,165.36569427993388L78.16589448539455,164.4389881085983L81.5811299991804,163.130507679302L82.00803443840363,161.6142978322325L82.43493887762685,162.27405466077212L90.97302766209145,156.91172563513197L91.39993210131469,153.41680380693424L93.53445429743084,157.99498075516877L93.96135873665406,161.1914955896399L96.52278537199345,161.1906867184047L98.23040312888637,160.80016208691274L98.6573075681096,159.02667982106266L106.76849191335097,153.45882604604395L120.85633840771757,152.04149149122605L122.13705172538725,149.38374303609942L122.56395616461049,145.02021939223644L122.99086060383372,143.3033611193443L123.41776504305695,151.07006297323278L123.84466948228018,147.48404452098507L124.2715739215034,147.75604417073464L124.69847836072664,144.01455139936456L125.12538279994988,149.59079353382526L125.5522872391731,153.81727794898825L125.97919167839633,160.28099434395554L126.40609611761955,150.77061534122575L131.1020449490751,144.99969602584173L134.0903760236377,152.6600474100501L134.51728046286095,157.43513934290493L136.22489821975387,152.73097373353403L138.35942041587,148.08400435388396L138.78632485509323,153.45435130497003L140.9208470512094,156.98019866855026L142.20156036887906,153.88693046159474L142.62846480810228,156.67100710877185L143.05536924732553,154.1010370716295L143.48227368654878,153.07364904047537L143.909178125772,149.95976021711513L144.33608256499522,133.09278983344785L145.1898914434417,125.35995945937945L148.60512695722753,137.32966820449457L149.03203139645075,149.3948153523262L149.458935835674,151.93916815971613L151.59345803179014,158.66404308823184L152.4472669102366,158.71087704582587L152.87417134945983,157.53415274187358L155.86250242402244,157.51897167204362L156.2894068632457,156.32450028795714L157.14321574169213,157.6751667845811L160.13154681625474,157.6975641449038L160.558451255478,156.40988839220626L160.9853556947012,157.50731459544133L161.41226013392443,158.13045559056218L161.83916457314766,157.20307166250703L162.2660690123709,159.85906977236058L162.69297345159413,141.58332523256632L163.54678233004057,152.780764724113L164.82749564771026,153.73751901005457L167.81582672227287,142.89793908684135L171.65796667528195,122.94501974629586L172.5117755537284,138.57064103310435L172.93867999295165,131.01807519100527L174.21939331062134,140.1883099282718L174.64629774984456,146.94899501957127L175.0732021890678,149.4429748974736L175.50010662829104,155.27487511683626L175.92701106751426,154.9010545942977L176.35391550673748,151.17322267733013L177.20772438518392,154.15736356465104L177.63462882440717,153.5783700630673L178.06153326363042,159.5436679137716L179.76915102052334,142.89616020576474L181.47676877741623,125.99141254412385" style="fill: none;" fill="none"></path></g><g><path stroke="rgb(255, 112, 67)" stroke-width="2px" d="M6.019044256668667,171.04554323357664L6.445948695891897,171.04546838619223L6.872853135115126,171.0454347649882L7.299757574338357,171.04532922256755L7.7266620135615875,171.0451271708484L8.153566452784817,171.0448611044352L8.580470892008048,171.04453716770655L9.007375331231277,171.04416687404282L9.43427977045451,171.04369444501833L9.861184209677738,171.04313745474093L10.288088648900969,171.04251190343393L10.714993088124197,171.04112698161958L11.141897527347428,171.03885367442388L11.568801966570659,171.03708181392207L11.995706405793888,171.03638487084038L12.42261084501712,171.03323775492498L12.849515284240349,171.0275732942631L13.27641972346358,171.02472310699486L13.703324162686808,171.0171921915867L14.130228601910039,171.01700091359967L14.55713304113327,171.02577800246786L14.9840374803565,171.02272104923713L15.41094191957973,170.74201659690547L17.11855967647265,170.36933877388947L21.38760406870495,169.3508119144195L29.498788413946322,166.94357684462426L29.925692853169554,165.37142391088457L58.955194720349205,154.16579457459363L59.80900359879567,147.94365991306879L66.21257018714411,139.92554681612484L68.34709238326026,134.1634063319481L70.05471014015319,139.4423504955161L70.48161457937641,142.55899697312057L71.7623278970461,134.3482657845232L81.15422555995715,125.18416433486385L85.42326995218946,117.6721691923333L87.13088770908239,113.88824318318493L89.69231434442176,108.75807603715216L90.119218783645,105.48896464387992L90.97302766209145,103.25485519663901L91.39993210131469,130.17563231789296L94.81516761510053,116.14923111952969L97.37659425043991,131.66189399461916L97.80349868966314,147.39474071205498L98.23040312888637,132.91928449943524L103.78016083878836,113.56275302153541L107.19539635257419,100.52147006575119L108.90301410946712,113.73847674356199L110.18372742713682,129.35472533927648L116.16038957626205,133.5046213489002L117.01419845470849,107.8554467504975L119.57562509004788,91.02641303026984L121.71014728616403,79.79449336100328L122.56395616461049,72.59584419439204L125.12538279994988,86.39187560336983L128.5406183137357,73.90480769349622L129.39442719218215,65.90686891586697L130.24823607062865,96.88701272380231L130.67514050985187,118.95781177053907L132.3827582667448,91.50102167676003L134.0903760236377,93.04189187794665L139.21322929431648,100.93728564265413L139.6401337335397,76.99173103122031L140.9208470512094,62.124442464655445L144.76298700421845,95.08220332617401L145.61679588266492,98.39347747335802L146.04370032188814,110.80279626393312L150.73964915334366,97.3429368957506L153.30107578868305,101.98360626278422L153.7279802279063,129.59399526362247L155.86250242402244,143.5554285357163L157.9970246201386,140.66276532664065L158.42392905936183,136.31133231365962L163.11987789081735,86.88597566063899L163.9736867692638,106.04267681571257L164.82749564771026,86.72509562818773L165.68130452615674,56.22176958308743L166.10820896537996,63.28614323296611L170.37725335761226,91.49541790863226L170.8041577968355,107.93655254160885L172.08487111450518,65.59114087801571L175.0732021890678,99.48917008981465L175.92701106751426,58.60422269427596L176.35391550673748,66.2550552976525L178.91534214207687,37.30215720641644L179.76915102052334,19.453579085946984L182.33057765586273,48.3316352546822L183.6112909735324,72.42044575994447L184.03819541275564,94.49747928521688" style="fill: none;" fill="none"></path></g><g><path stroke="rgb(0, 119, 187)" stroke-width="2px" d="M6.019044256668667,171.04555585518034L6.445948695891897,171.04551379781705L6.872853135115126,171.04545370690064L7.299757574338357,171.04534399967898L7.7266620135615875,171.04514568682097L8.153566452784817,171.0448505875489L8.580470892008048,171.04452782830364L9.007375331231277,171.0441955227034L9.43427977045451,171.04371135418234L9.861184209677738,171.04312802692405L10.288088648900969,171.04259905477193L10.714993088124197,171.0420512505051L11.141897527347428,171.0408944833207L11.568801966570659,171.03743724503147L11.995706405793888,171.03205483870119L12.42261084501712,171.02592611072603L12.849515284240349,171.00506331008452L13.27641972346358,170.86685297072387L13.703324162686808,170.60266998929663L14.55713304113327,170.3215963418842L14.9840374803565,170.43694067901575L15.83784635880296,170.05540319146792L16.69165523724942,169.61152276158998L39.31759051608062,163.26453857163636L56.39376808500982,152.38543696664368L57.24757696345628,156.7779474989174L57.67448140267952,161.26568592943448L59.382099159572434,150.28001185401797L64.07804799102796,141.28552454907938L64.5049524302512,135.87829665904525L66.63947462636735,131.71920680996323L73.89685009316226,142.77387109710884L74.3237545323855,152.63080461246065L74.75065897160871,159.98427602547548L75.17756341083195,164.39774433038892L75.60446785005517,166.33050492781226L82.86184331685008,142.43241920471058L83.2887477560733,142.28363843934545L87.98469658752884,125.90325273448369L88.41160102675208,115.82628728499328L93.1075498582076,121.59836132606351L93.53445429743084,110.77950470141121L96.94968981121669,111.92183475413128L102.49944752111867,111.99290936494826L102.9263519603419,131.5860607822137L104.63396971723482,111.15111647355694L110.18372742713682,96.05366728671942L111.03753630558327,108.78824627959492L112.31824962325297,93.73833890473537L118.72181621160142,103.52462851204974L120.42943396849434,86.79917668099918L121.2832428469408,106.77538863589115L123.41776504305695,87.31034500383528L124.69847836072664,75.15373072864018L127.68680943528925,97.19431976712664L129.39442719218215,117.52017701213713L137.0787070982003,134.40705890437394L137.50561153742353,100.06620869876303L140.9208470512094,74.80789134771354L143.05536924732553,89.31687725016144L143.48227368654878,89.60936788535301L145.1898914434417,116.19028302418468L145.61679588266492,138.10242650056884L149.458935835674,148.17310948636847L153.30107578868305,151.7902110881672L154.58178910635274,151.18447414065534L155.4355979847992,126.48248442227114L156.7163113024689,126.06522775324181L159.7046423770315,112.12552226121446L162.69297345159413,123.56697935836773L165.25440008693352,105.19873472343352L166.96201784382643,109.53331735163776L167.81582672227287,74.79003351828361L168.66963560071935,78.75623330391055L169.09654003994257,106.24686963117011L170.8041577968355,64.24892586320063L171.65796667528195,101.43594797424842L172.93867999295165,111.99264588301212L173.36558443217487,94.68097947209947L174.21939331062134,105.76805884236896L176.35391550673748,94.7018305852843L178.48843770285364,120.72709584450112L181.47676877741623,119.33181927771791L182.33057765586273,126.06434257565934L182.75748209508595,70.03435496748592" style="fill: none;" fill="none"></path></g><g><path stroke="rgb(204, 51, 17)" stroke-width="2px" d="M6.019044256668667,171.04550049063877L6.445948695891897,171.04540471345365L6.872853135115126,171.04535283739156L7.299757574338357,171.04520668900568L7.7266620135615875,171.04496151376065L8.153566452784817,171.04467065901028L8.580470892008048,171.04429267163195L9.007375331231277,171.04387171599188L9.43427977045451,171.04336759665992L9.861184209677738,171.0428153199151L10.288088648900969,171.04226832973112L10.714993088124197,171.04149178972503L11.141897527347428,171.04026526521662L11.568801966570659,171.03748536447875L11.995706405793888,171.0318301093391L12.42261084501712,171.02835946812294L12.849515284240349,171.0238579430266L13.27641972346358,171.02134114525478L13.703324162686808,171.01774509652233L14.130228601910039,171.01764687109576L14.55713304113327,171.01972563116567L14.9840374803565,171.0033485464045L15.41094191957973,170.99891919963835L15.83784635880296,171.00094062283807L16.264750798026192,171.00802802819393L16.69165523724942,170.9820375854133L17.11855967647265,170.94050043081873L23.09522182559787,169.40379928038746L50.4171059358846,159.55693701557013L63.651143551804736,147.48832641443448L69.62780570092995,147.45886519217916L76.0313722892784,134.84823596631523L76.88518116772487,127.0902179211L77.3120856069481,122.47890608979147L80.3004166815107,118.29280850678674L81.5811299991804,115.24980992983637L85.8501743914127,132.86095233441898L86.27707883063593,147.9602959227747L88.8385054659753,128.72429918453483L89.26540990519854,118.12965282995472L89.69231434442176,127.44019314559822L90.119218783645,116.88364600231155L92.25374097976115,109.28074384889713L94.3882631758773,103.93598892203259L94.81516761510053,100.44860723228018L100.79182976422575,112.1545097132481L101.64563864267221,101.85519530569373L102.49944752111867,95.56183846483093L103.35325639956514,118.4971908796006L103.78016083878836,136.26802517901336L104.63396971723482,149.5688734556941L107.62230079179744,121.29122623395597L109.32991854869034,103.78624334821986L109.7568229879136,93.01715606566316L112.74515406247619,84.96141168198521L114.0258673801459,81.28821632939255L116.58729401548527,94.63192328820716L117.01419845470849,119.2698591342288L118.72181621160142,98.0747821299067L120.42943396849434,126.6082218074186L121.2832428469408,135.56390241100428L121.71014728616403,128.50388352562896L122.56395616461049,102.01655577488654L124.69847836072664,84.79440939858817L126.83300055684278,114.42035869511227L127.25990499606603,127.49863173824345L127.68680943528925,113.68596575050775L128.11371387451248,113.68807008661763L128.96752275295893,136.02189060894955L129.39442719218215,136.2078412047998L130.67514050985187,102.7179651637056L131.95585382752157,124.31301514794339L134.94418490208417,93.01998005394204L135.3710893413074,88.34402067398632L139.6401337335397,69.57035988776974L140.49394261198617,57.39664426875488L141.34775149043261,49.59894655975402L142.20156036887906,44.66610726308054L143.48227368654878,94.61495787339223L146.47060476111136,97.79082717968602L146.89750920033458,119.49293570459068L147.32441363955783,140.09313752687325L147.75131807878108,152.13652705889038L148.1782225180043,158.1061272831919L148.60512695722753,163.18255224809397L151.59345803179014,136.2498694633338L152.02036247101339,138.14951014002847L153.7279802279063,148.6885768050689L154.15488466712952,98.2064916915347L156.7163113024689,96.21856368123528L157.14321574169213,65.83964006690918L157.9970246201386,96.46378104434945L158.42392905936183,117.20657361751647L161.41226013392443,113.0140374280622L161.83916457314766,118.8228080406153L163.11987789081735,107.8921897635937L163.9736867692638,68.6983058253664L166.10820896537996,77.50016081346249L166.5351134046032,110.93517270776582L167.38892228304965,69.64097271107259L170.37725335761226,69.99567848949715L170.8041577968355,89.37694001859293L173.36558443217487,105.43084092505944L173.79248887139812,129.9206525800641L175.0732021890678,110.98728530674774L175.50010662829104,120.97099099291849L175.92701106751426,138.3903158243898L177.63462882440717,150.25067272895728L178.48843770285364,148.02410225784743L183.18438653430917,121.46274989341435L183.6112909735324,98.93066640610166" style="fill: none;" fill="none"></path></g><g><path stroke="rgb(238, 51, 119)" stroke-width="2px" d="M6.019044256668667,171.0455822234332L6.445948695891897,171.04512209742086L6.872853135115126,171.0447241116942L7.299757574338357,171.0443003498859L7.7266620135615875,171.04405511396791L8.153566452784817,171.04369917641347L8.580470892008048,171.0430912068113L9.007375331231277,171.04246365944996L9.43427977045451,171.04203190337805L9.861184209677738,171.04170959147913L10.288088648900969,171.04081687652462L10.714993088124197,171.0399550603565L11.141897527347428,171.0384350873428L11.568801966570659,171.03723824513733L11.995706405793888,171.03731132290267L12.42261084501712,171.0353686850509L12.849515284240349,171.03499481046893L13.27641972346358,171.03291653725455L13.703324162686808,171.03188092747897L14.130228601910039,171.03036684227772L14.55713304113327,171.023135131617L14.9840374803565,171.02240935185185L15.41094191957973,171.0104628509207L15.83784635880296,170.98782218376604L16.264750798026192,170.98053158700623L16.69165523724942,170.98351645307943L17.11855967647265,170.96215727225527L17.54546411569588,170.9261896262633L17.97236855491911,170.83962502343002L18.39927299414234,170.7542596765628L18.826177433365572,170.73591422167183L19.2530818725888,170.67989934155244L19.67998631181203,170.32742676962883L20.106890751035262,170.42835121216066L20.53379519025849,170.30604770654563L20.960699629481724,170.29282968907611L21.38760406870495,170.01974658909785L21.81450850792818,169.78738534312382L22.241412947151414,169.64103387214266L22.668317386374643,169.53504838668016L23.09522182559787,169.7972363394573L23.5221262648211,169.36772888892023L23.949030704044333,169.32593132957544L24.375935143267565,169.69070399519458L24.802839582490794,168.71441920684364L25.229744021714023,169.20752431439618L25.65664846093725,168.50125986180637L26.083552900160484,168.61139938636012L26.937361778606945,168.6649845211107L28.644979535499864,165.68105648084847L29.071883974723093,166.85334772528492L29.498788413946322,166.74802365434772L35.47545056307155,165.05246745950168L44.86734822598261,158.30704243562508L76.0313722892784,140.59656758648205L89.69231434442176,128.84554143410375L90.54612322286823,116.27161678453079L90.97302766209145,109.40781909132444L91.82683654053791,105.3456037405243L95.24207205432376,99.93986099728835L97.80349868966314,96.3385572928146L99.9380208857793,92.64875009296307L103.78016083878836,90.9082020972508L105.48777859568129,87.74206997264366L105.91468303490451,85.41708751436289L107.62230079179744,112.02895980010133L108.04920523102066,98.86541800582975L108.47610967024389,89.38745189897948L108.90301410946712,105.2724521990879L109.32991854869034,112.39818799930161L112.31824962325297,96.67998767669764L114.0258673801459,115.83595407857453L114.45277181936912,135.3041495179441L114.87967625859234,149.3203577217816L117.01419845470849,115.28633620269811L117.86800733315495,95.58736723973425L126.83300055684278,116.6384713275595L127.68680943528925,129.2763232707315L128.11371387451248,142.34105130145855L128.5406183137357,140.9000022098396L130.24823607062865,137.72037302197774L130.67514050985187,104.16347559046618L131.1020449490751,124.56037095615352L133.23656714519123,118.46728348944106L134.94418490208417,137.80831493958075L135.3710893413074,136.3420613199502L136.6518026589771,101.72805878389143L137.50561153742353,82.66179163355902L138.35942041587,116.30119158831968L138.78632485509323,117.05458000858954L139.6401337335397,137.43700750810194L140.9208470512094,97.65688346570884L141.34775149043261,93.51251553681415L147.32441363955783,121.4613424372943L149.88584027489722,82.89798539844088L150.31274471412044,97.44521737141923L150.73964915334366,68.2068797882818L152.02036247101339,69.06986209505796L154.58178910635274,87.71964726580701L157.9970246201386,59.073905290733485L159.27773793780827,99.64300999248383L159.7046423770315,112.83962537847356L163.54678233004057,72.12099754655468L167.81582672227287,105.00547982089053L168.2427311614961,89.31162307822459L169.52344447916582,104.66662646769561L169.95034891838904,63.82226103450572L170.37725335761226,80.4456781506748L172.08487111450518,86.06861962260966L173.79248887139812,115.54919119858839L175.50010662829104,68.28878692116803L176.35391550673748,101.58064132161344L177.63462882440717,58.380907309744366L178.48843770285364,55.74127069225702L178.91534214207687,96.78539711634252L182.75748209508595,105.66386380427683L183.18438653430917,121.81762524724282" style="fill: none;" fill="none"></path></g></g></g></g><g opacity="0.2"><g><g><g><path stroke="rgb(51, 187, 238)" stroke-width="2px" d="M6.019044256668667,171.04388281590488L6.445948695891897,171.0437285792045L6.872853135115126,171.0433108621322L7.299757574338357,171.04218085944544L7.7266620135615875,171.037272760753L8.153566452784817,171.02968642103914L8.580470892008048,171.0230656515872L9.007375331231277,171.00245249844187L9.43427977045451,171.00940925217168L9.861184209677738,171.01066922397675L10.288088648900969,170.9957413298297L10.714993088124197,171.01123034918695L11.141897527347428,170.92207000465572L11.568801966570659,170.7285726106123L11.995706405793888,170.82857741770619L12.42261084501712,170.79565486097425L12.849515284240349,170.92218853654438L13.27641972346358,170.97543433846826L13.703324162686808,170.93398219248658L14.130228601910039,170.90744239986293L14.55713304113327,170.795392532016L14.9840374803565,170.93828620769025L15.41094191957973,170.74169039451613L15.83784635880296,170.8664316045989L16.264750798026192,170.6880779354442L16.69165523724942,170.77146283276295L17.11855967647265,170.70861054236647L17.54546411569588,170.34185432002488L17.97236855491911,170.43142091143844L19.67998631181203,170.27118740237074L20.106890751035262,170.6633383616729L21.38760406870495,170.99352113172864L21.81450850792818,170.16620512171113L28.218075096276635,169.10178717074027L28.644979535499864,169.5774750930754L29.498788413946322,168.56655171750734L29.925692853169554,170.42852093098932L30.352597292392787,170.89868244670683L30.779501731616016,170.23033172824222L31.633310610062473,168.26215295013972L32.91402392773217,169.01626655920262L33.340928366955396,169.77920664206889L33.76783280617863,166.6458741164065L34.19473724540185,169.69354068872147L34.62164168462508,169.47719641651793L35.47545056307155,165.97388446602133L35.90235500229478,168.8869835076569L37.6099727591877,165.36758509471932L38.03687719841093,167.27843598629178L38.463781637634156,168.72942820445297L38.890686076857385,169.46863327366643L39.31759051608062,169.53756860573435L39.74449495530385,169.90375711959197L40.17139939452707,170.07498390485205L41.025208272973536,169.19780909718733L41.45211271219677,170.01259486071118L41.87901715142,171.03580072666907L42.30592159064322,164.69272489085523L44.440443786759374,168.73088021624358L44.86734822598261,169.28911244236465L45.29425266520584,162.81332577002803L45.721157104429075,167.20995221934345L46.148061543652304,166.6019621859836L46.574965982875526,167.76578542666203L47.00187042209876,168.33586592836377L47.42877486132199,166.41680304875248L49.13639261821491,162.7417413778052L49.56329705743814,163.90571396826778L50.84401037510783,167.14447794898774L51.270914814331064,166.88860182957973L52.12472369277752,170.11855600123212L52.55162813200075,169.43593917147723L53.405437010447216,168.88188648922218L53.832341449670444,163.87819366886566L54.6861503281169,164.29461518103614L55.11305476734013,163.80621494821077L55.966863645786596,165.67744173885146L56.39376808500982,165.40949135035694L56.82067252423305,166.2060598153476L57.24757696345628,168.48998449896348L58.10138584190275,167.94088328238738L58.52829028112597,165.41364389313205L58.955194720349205,169.94266808233584L59.382099159572434,168.91132485049474L60.2359080380189,169.25855873915398L60.66281247724212,163.24105342650046L61.089716916465356,163.36993413366525L61.516621355688585,169.4265101655173L61.943525794911814,168.78237678123332L62.79733467335827,165.90273265377604L64.07804799102796,169.13843327635217L64.5049524302512,168.6398066616005L64.93185686947443,166.93403904037848L65.35876130869767,165.04599141387587L65.78566574792089,169.9997981718118L66.21257018714411,168.1913887160537L66.63947462636735,169.0994096684321L67.49328350481382,168.5650883146315L68.34709238326026,169.38849670778527L68.7739968224835,167.01768476366507L69.20090126170673,167.10930396535394L69.62780570092995,166.5884726097145L70.05471014015319,167.53186738192568L71.33542345782288,160.8090032894247L71.7623278970461,159.04332657582177L72.61613677549256,166.5388482609929L74.75065897160871,169.5480146527858L76.45827672850163,169.20849787279573L76.88518116772487,165.00577272642101L77.3120856069481,164.17598645058177L77.73899004617132,165.08405676432952L78.16589448539455,163.0489288515949L81.5811299991804,161.1677870353576L82.00803443840363,159.33998306162817L82.43493887762685,163.26368990358162L90.97302766209145,148.86823209667168L91.39993210131469,148.17442106463764L93.53445429743084,164.86224617752057L93.96135873665406,165.98626784134663L96.52278537199345,161.18947341155186L98.23040312888637,160.21437513967481L98.6573075681096,156.3664564222875L106.76849191335097,145.10704538351592L120.85633840771757,149.9154896589992L122.13705172538725,145.39712035340946L122.56395616461049,138.47493392644196L122.99086060383372,140.7280737100061L123.41776504305695,162.72011575406555L123.84466948228018,142.10501684261348L124.2715739215034,148.164043645359L124.69847836072664,138.40231224230945L125.12538279994988,157.95515673551628L125.5522872391731,160.1570045717328L125.97919167839633,169.97656893640644L126.40609611761955,136.5050468371311L131.1020449490751,136.34331705276568L134.0903760236377,164.15057448636267L134.51728046286095,164.59777724218716L136.22489821975387,145.6747253194777L138.35942041587,141.11355028440886L138.78632485509323,161.50987173159913L140.9208470512094,162.26896971392057L142.20156036887906,149.24702815116152L142.62846480810228,160.84712207953746L143.05536924732553,150.24608201591593L143.48227368654878,151.5325669937442L143.909178125772,145.28892698207474L144.33608256499522,107.79233425794696L145.1898914434417,113.76071389827686L148.60512695722753,155.28423132216724L149.03203139645075,167.4925360740736L149.458935835674,155.7556973708011L151.59345803179014,168.7513554810053L152.4472669102366,158.78112798221696L152.87417134945983,155.76906628594512L155.86250242402244,157.49620006729867L156.2894068632457,154.53279321182745L157.14321574169213,159.70116652951702L160.13154681625474,157.7311601853879L160.558451255478,154.4783747631599L160.9853556947012,159.153453900294L161.41226013392443,159.06516708324338L161.83916457314766,155.81199577042426L162.2660690123709,163.84306693714095L162.69297345159413,114.16970842287492L163.54678233004057,169.57692396143304L164.82749564771026,155.1726504389669L167.81582672227287,126.63856920202153L171.65796667528195,93.0156407354776L172.5117755537284,162.00907296331707L172.93867999295165,119.68922642785665L174.21939331062134,153.9436620341716L174.64629774984456,157.0900226565204L175.0732021890678,153.18394471432708L175.50010662829104,164.0227254458803L175.92701106751426,154.34032381048988L176.35391550673748,145.58147480187876L177.20772438518392,158.6335748956324L177.63462882440717,152.70987981069172L178.06153326363042,168.49161468982805L179.76915102052334,117.92489864375449L181.47676877741623,100.63429105166247" style="fill: none;" fill="none"></path></g><g><path stroke="rgb(255, 112, 67)" stroke-width="2px" d="M6.019044256668667,171.04554323357664L6.445948695891897,171.0454234777616L6.872853135115126,171.0454024886323L7.299757574338357,171.04520510468086L7.7266620135615875,171.0448633721238L8.153566452784817,171.0444930388019L8.580470892008048,171.04407393300158L9.007375331231277,171.04362698232626L9.43427977045451,171.04299770397185L9.861184209677738,171.0423103890929L10.288088648900969,171.0415792501777L10.714993088124197,171.03905713558146L11.141897527347428,171.0354511363727L11.568801966570659,171.03442749442857L11.995706405793888,171.03534027544828L12.42261084501712,171.02851930064182L12.849515284240349,171.01907900028021L13.27641972346358,171.02044854975472L13.703324162686808,171.0058969657336L14.130228601910039,171.01671401410272L14.55713304113327,171.03894315441377L14.9840374803565,171.0181357199814L15.41094191957973,170.32096546042766L17.11855967647265,169.81032645408953L21.38760406870495,167.82302886446755L29.498788413946322,163.3327345056894L29.925692853169554,163.0131985329835L58.955194720349205,137.3573677734378L59.80900359879567,138.61046365224692L66.21257018714411,127.89838160219813L68.34709238326026,125.52019751647143L70.05471014015319,147.36076569053492L70.48161457937641,147.23396631746226L71.7623278970461,122.03216958974497L81.15422555995715,111.4380125542183L85.42326995218946,106.40417667224223L87.13088770908239,108.21235422800589L89.69231434442176,101.06282536572625L90.119218783645,100.58529757217983L90.97302766209145,99.9036910332437L91.39993210131469,170.5567979457944L94.81516761510053,95.10962933885959L97.37659425043991,154.9308882960556L97.80349868966314,170.99401078139476L98.23040312888637,111.20610018426723L103.78016083878836,84.52795580770375L107.19539635257419,80.95954563329487L108.90301410946712,133.56398675953633L110.18372742713682,152.7790982323223L116.16038957626205,139.72946536325193L117.01419845470849,69.38168485320439L119.57562509004788,65.78286245005079L121.71014728616403,62.94661385715244L122.56395616461049,61.79787044449403L125.12538279994988,107.08592271681479L128.5406183137357,55.174205828697644L129.39442719218215,53.90996074942758L130.24823607062865,143.35722843569482L130.67514050985187,152.06401034063973L132.3827582667448,50.315836536094864L134.0903760236377,95.3531971797265L139.21322929431648,112.78037628971497L139.6401337335397,41.07339911407023L140.9208470512094,39.823509614808394L144.76298700421845,144.51884461845154L145.61679588266492,103.36038869413404L146.04370032188814,129.41677444979567L150.73964915334366,77.15314784347682L153.30107578868305,108.94461031333466L153.7279802279063,171.0095787648799L155.86250242402244,164.497578443857L157.9970246201386,136.3237705130272L158.42392905936183,129.7841827941881L163.11987789081735,12.747940681108046L163.9736867692638,134.7777285483229L164.82749564771026,57.7487238469005L165.68130452615674,10.466780515436955L166.10820896537996,73.88270370778417L170.37725335761226,133.80932992213147L170.8041577968355,132.59825449107373L172.08487111450518,2.0730233826260283L175.0732021890678,150.33621390751307L175.92701106751426,-2.723198399032068L176.35391550673748,77.73130420271728L178.91534214207687,-6.1271899304376145L179.76915102052334,-7.319288094757237L182.33057765586273,91.64871950778506L183.6112909735324,108.55366151783787L184.03819541275564,127.6130295731255" style="fill: none;" fill="none"></path></g><g><path stroke="rgb(0, 119, 187)" stroke-width="2px" d="M6.019044256668667,171.04555585518034L6.445948695891897,171.04548856339906L6.872853135115126,171.04539601962094L7.299757574338357,171.04521498398626L7.7266620135615875,171.04488676955353L8.153566452784817,171.0444423590199L8.580470892008048,171.04406627741884L9.007375331231277,171.0437110179481L9.43427977045451,171.04299729965862L9.861184209677738,171.0422618539288L10.288088648900969,171.04181039428224L10.714993088124197,171.0412325252315L11.141897527347428,171.03916310958968L11.568801966570659,171.0322581606873L11.995706405793888,171.02398755602238L12.42261084501712,171.0167373412171L12.849515284240349,170.97377793756036L13.27641972346358,170.65957255327302L13.703324162686808,170.20643576277396L14.55713304113327,169.90001156201026L14.9840374803565,170.60995085895553L15.83784635880296,169.48310951479974L16.69165523724942,168.94571088041783L39.31759051608062,153.74413747278453L56.39376808500982,136.06686188315268L57.24757696345628,163.36669456527702L57.67448140267952,167.99728209231742L59.382099159572434,133.80151760649065L64.07804799102796,127.79380187686546L64.5049524302512,127.76745781248673L66.63947462636735,125.48057341553962L73.89685009316226,159.3558653283191L74.3237545323855,167.41620370876848L74.75065897160871,171.0144826182836L75.17756341083195,171.0179465980825L75.60446785005517,169.229645774109L82.86184331685008,106.5852909898006L83.2887477560733,142.06046729267885L87.98469658752884,101.33267426842637L88.41160102675208,100.7108391444336L93.1075498582076,130.25647237609516L93.53445429743084,94.55121977744864L96.94968981121669,113.6353298323868L102.49944752111867,112.09952128114293L102.9263519603419,160.9757879030203L104.63396971723482,80.49870001375798L110.18372742713682,73.40749350787544L111.03753630558327,127.8901147681934L112.31824962325297,71.1634778429529L118.72181621160142,118.20406292282358L120.42943396849434,61.710998934626055L121.2832428469408,136.7397065680838L123.41776504305695,58.11277955583644L124.69847836072664,56.9188093158794L127.68680943528925,130.2552033248217L129.39442719218215,148.00896287963374L137.0787070982003,159.73738174271958L137.50561153742353,48.55493339035831L140.9208470512094,36.92041532114446L143.05536924732553,111.0803561038315L143.48227368654878,90.04810383814038L145.1898914434417,156.061655732431L145.61679588266492,170.97064171514452L149.458935835674,163.27913396506773L153.30107578868305,157.21586349086527L154.58178910635274,150.27586871938757L155.4355979847992,89.4294998446949L156.7163113024689,125.43934274969783L159.7046423770315,91.21596402317338L162.69297345159413,140.7291650040976L165.25440008693352,77.64636777103225L166.96201784382643,116.03519129394414L167.81582672227287,22.675107768252413L168.66963560071935,84.70553298235099L169.09654003994257,147.48282412205944L170.8041577968355,1.2520102112463678L171.65796667528195,157.21648114082018L172.93867999295165,127.82769274615762L173.36558443217487,68.7134798557305L174.21939331062134,122.39867789777321L176.35391550673748,78.10248819965732L178.48843770285364,159.76499373332632L181.47676877741623,117.23890442754312L182.33057765586273,136.1631275225715L182.75748209508595,-14.010626444774227" style="fill: none;" fill="none"></path></g><g><path stroke="rgb(204, 51, 17)" stroke-width="2px" d="M6.019044256668667,171.04550049063877L6.445948695891897,171.04534724714256L6.872853135115126,171.04530303637196L7.299757574338357,171.04503481850392L7.7266620135615875,171.04464141296071L8.153566452784817,171.0442683021828L8.580470892008048,171.04375214363313L9.007375331231277,171.04325795862752L9.43427977045451,171.04262411856536L9.861184209677738,171.0419952533136L10.288088648900969,171.04145280561585L10.714993088124197,171.04033120561235L11.141897527347428,171.03842948326928L11.568801966570659,171.03332095948687L11.995706405793888,171.02335387416974L12.42261084501712,171.0231559540638L12.849515284240349,171.0171075602766L13.27641972346358,171.01756658761173L13.703324162686808,171.01235157124546L14.130228601910039,171.01749954193414L14.55713304113327,171.0228436572664L14.9840374803565,170.9787834581577L15.41094191957973,170.99227526693886L15.83784635880296,171.00397273369202L16.264750798026192,171.0186590858535L16.69165523724942,170.9430520320797L17.11855967647265,170.87819480520906L23.09522182559787,167.0987499139388L50.4171059358846,144.78665268869594L63.651143551804736,129.38541718286862L69.62780570092995,147.41467336856584L76.0313722892784,115.93229463661241L76.88518116772487,115.45319177942872L77.3120856069481,115.56193867312743L80.3004166815107,112.01366231218462L81.5811299991804,110.6853121428778L85.8501743914127,159.27766566881974L86.27707883063593,170.60931116514124L88.8385054659753,99.87030418431549L89.26540990519854,102.23768333349055L89.69231434442176,141.40600360039465L90.119218783645,101.04882530008186L92.25374097976115,97.87639062426356L94.3882631758773,95.91885653405069L94.81516761510053,95.21753469855781L100.79182976422575,129.71336343287476L101.64563864267221,86.40622369532574L102.49944752111867,86.12180320388998L103.35325639956514,152.90021950098264L103.78016083878836,162.92427662777345L104.63396971723482,169.5201458705539L107.62230079179744,78.8747554015545L109.32991854869034,77.52876901969212L109.7568229879136,76.86352514185627L112.74515406247619,72.87779510648093L114.0258673801459,75.77842330050707L116.58729401548527,114.64748372642147L117.01419845470849,156.2267629032529L118.72181621160142,66.28216662342787L120.42943396849434,169.40838132368305L121.2832428469408,148.99742331638208L121.71014728616403,117.91385519756635L122.56395616461049,62.28556414877356L124.69847836072664,58.96118983414091L126.83300055684278,158.8592826398981L127.25990499606603,147.11604130294012L127.68680943528925,92.96696676890426L128.11371387451248,113.69122659078249L128.96752275295893,169.52262139244738L129.39442719218215,136.48676709857517L130.67514050985187,52.48315110206433L131.95585382752157,156.70559012430007L134.94418490208417,46.08042741294003L135.3710893413074,81.3300816040527L139.6401337335397,41.4098687084449L140.49394261198617,39.13607084023256L141.34775149043261,37.902399996252754L142.20156036887906,37.2668483180703L143.48227368654878,169.53823378885974L146.47060476111136,102.55463113912676L146.89750920033458,152.04609849194765L147.32441363955783,170.99344026029712L147.75131807878108,170.2016113569161L148.1782225180043,167.06052761964418L148.60512695722753,170.7971896954471L151.59345803179014,95.85084528619352L152.02036247101339,140.99897115507045L153.7279802279063,164.49717680262953L154.15488466712952,22.483364021233438L156.7163113024689,93.2366716657861L157.14321574169213,20.27125464542009L157.9970246201386,142.39999251050983L158.42392905936183,148.32076247726698L161.41226013392443,106.7252331438808L161.83916457314766,127.53596395944496L163.11987789081735,91.4962623480613L163.9736867692638,9.90747991802548L166.10820896537996,90.70294329560662L166.5351134046032,161.08769054922078L167.38892228304965,7.69967271603279L170.37725335761226,70.52773715713398L170.8041577968355,118.44883231223662L173.36558443217487,129.51169228475916L173.79248887139812,166.65537006257102L175.0732021890678,82.58723439677323L175.50010662829104,135.94654952217462L175.92701106751426,164.51930307159674L177.63462882440717,168.0412080858085L178.48843770285364,144.6842465511827L183.18438653430917,81.62072134676471L183.6112909735324,65.1325411751326" style="fill: none;" fill="none"></path></g><g><path stroke="rgb(238, 51, 119)" stroke-width="2px" d="M6.019044256668667,171.0455822234332L6.445948695891897,171.04484602181344L6.872853135115126,171.0443420453966L7.299757574338357,171.04380200599928L7.7266620135615875,171.04373493395343L8.153566452784817,171.04320678663817L8.580470892008048,171.0422218005527L9.007375331231277,171.04154868937263L9.43427977045451,171.04139514703627L9.861184209677738,171.0412309958728L10.288088648900969,171.03948590095172L10.714993088124197,171.03866702606985L11.141897527347428,171.03616009079784L11.568801966570659,171.03544532656764L11.995706405793888,171.03742085365047L12.42261084501712,171.03245609837205L12.849515284240349,171.03443415680712L13.27641972346358,171.02979965510633L13.703324162686808,171.03032767058036L14.130228601910039,171.0280958528692L14.55713304113327,171.01228796223018L14.9840374803565,171.0213207060862L15.41094191957973,170.9925433353868L15.83784635880296,170.9538614512343L16.264750798026192,170.96959574368492L16.69165523724942,170.9879937394602L17.11855967647265,170.93011855567127L17.54546411569588,170.87223821249418L17.97236855491911,170.7097781989183L18.39927299414234,170.62621170344212L18.826177433365572,170.7083960454189L19.2530818725888,170.5958770325185L19.67998631181203,169.79871795382152L20.106890751035262,170.5797378687294L20.53379519025849,170.12259245337933L20.960699629481724,170.27300266321268L21.38760406870495,169.61012194335547L21.81450850792818,169.43884347631982L22.241412947151414,169.421506666486L22.668317386374643,169.37607015884066L23.09522182559787,170.19051826809724L23.5221262648211,168.72346771363138L23.949030704044333,169.26323499058847L24.375935143267565,170.23786299346526L24.802839582490794,167.24999202457096L25.229744021714023,169.9471819756481L25.65664846093725,167.44186318298773L26.083552900160484,168.77660867318457L26.937361778606945,168.74536222323485L28.644979535499864,161.20516442051542L29.071883974723093,168.61178459192533L29.498788413946322,166.5900375479427L35.47545056307155,162.50913316724004L44.86734822598261,148.18890489982778L76.0313722892784,114.03085531279531L89.69231434442176,111.21900220554735L90.54612322286823,97.4107298101785L90.97302766209145,99.1121225515173L91.82683654053791,99.2522807143249L95.24207205432376,91.83124688243512L97.80349868966314,90.93660173610417L99.9380208857793,87.11403929318598L103.78016083878836,88.2973801036824L105.48777859568129,82.992871785733L105.91468303490451,81.92961382694176L107.62230079179744,151.9467682287089L108.04920523102066,79.12010531442237L108.47610967024389,75.1705027387041L108.90301410946712,129.09995264925044L109.32991854869034,123.08679169962215L112.31824962325297,73.10268719279165L114.0258673801459,144.5699036813899L114.45277181936912,164.50644267699846L114.87967625859234,170.34467002753786L117.01419845470849,64.23530392407288L117.86800733315495,66.03891379528845L126.83300055684278,148.21512745929735L127.68680943528925,148.23310118548946L128.11371387451248,161.93814334754916L128.5406183137357,138.73842857241118L130.24823607062865,132.95092924018493L130.67514050985187,53.828129443198854L131.1020449490751,155.15571400468448L133.23656714519123,109.3276522893724L134.94418490208417,166.8198621147903L135.3710893413074,134.14268089050438L136.6518026589771,49.80705497980323L137.50561153742353,54.0623909080604L138.35942041587,166.76029152046073L138.78632485509323,118.18466263899428L139.6401337335397,168.01064875737055L140.9208470512094,37.986697402119255L141.34775149043261,87.29596364347206L147.32441363955783,163.38458278801454L149.88584027489722,25.052949840160753L150.31274471412044,119.26606533088683L150.73964915334366,24.34937341357567L152.02036247101339,70.36433555522214L154.58178910635274,115.69432502193057L157.9970246201386,16.105292328123255L159.27773793780827,160.49666704510932L159.7046423770315,132.63454845745815L163.54678233004057,11.043055798676338L167.81582672227287,154.3322032323943L168.2427311614961,65.77083796422572L169.52344447916582,127.69913155190213L169.95034891838904,2.555712884720859L170.37725335761226,105.3808038249284L172.08487111450518,94.50303183051193L173.79248887139812,159.7700485625565L175.50010662829104,-2.601819494962485L176.35391550673748,151.51842292228156L177.63462882440717,-6.418693708059221L178.48843770285364,51.781815766026L178.91534214207687,158.35158675247075L182.75748209508595,118.98156383617832L183.18438653430917,146.04826741169174" style="fill: none;" fill="none"></path></g></g></g></g></g></g><g transform="translate(72, 178)" clip-path="url(#clip_1)"><clipPath id="clip_1"><rect width="257" height="22"></rect></clipPath><g><g><line x1="5.592139817445436" y1="0" x2="5.592139817445436" y2="5" style="visibility: inherit;" fill="rgb(0, 0, 0)" stroke="rgb(204, 204, 204)" stroke-width="1px"></line><line x1="41.167509752714615" y1="0" x2="41.167509752714615" y2="5" style="visibility: inherit;" fill="rgb(0, 0, 0)" stroke="rgb(204, 204, 204)" stroke-width="1px"></line><line x1="76.74287968798377" y1="0" x2="76.74287968798377" y2="5" style="visibility: inherit;" fill="rgb(0, 0, 0)" stroke="rgb(204, 204, 204)" stroke-width="1px"></line><line x1="112.31824962325297" y1="0" x2="112.31824962325297" y2="5" style="visibility: inherit;" fill="rgb(0, 0, 0)" stroke="rgb(204, 204, 204)" stroke-width="1px"></line><line x1="147.89361955852215" y1="0" x2="147.89361955852215" y2="5" style="visibility: inherit;" fill="rgb(0, 0, 0)" stroke="rgb(204, 204, 204)" stroke-width="1px"></line><line x1="183.46898949379133" y1="0" x2="183.46898949379133" y2="5" style="visibility: inherit;" fill="rgb(0, 0, 0)" stroke="rgb(204, 204, 204)" stroke-width="1px"></line><line x1="219.0443594290605" y1="0" x2="219.0443594290605" y2="5" style="visibility: inherit;" fill="rgb(0, 0, 0)" stroke="rgb(204, 204, 204)" stroke-width="1px"></line><line x1="254.6197293643297" y1="0" x2="254.6197293643297" y2="5" style="visibility: inherit;" fill="rgb(0, 0, 0)" stroke="rgb(204, 204, 204)" stroke-width="1px"></line></g><g transform="translate(0, 8)"><text x="5.592139817445436" y="0" dx="0em" dy="0.95em" style="text-anchor: middle; visibility: inherit; font-family: Roboto, sans-serif; font-size: 12px; font-weight: 200;" fill="rgb(50, 49, 63)" stroke="none" stroke-width="1px">0</text><text x="41.167509752714615" y="0" dx="0em" dy="0.95em" style="text-anchor: middle; visibility: inherit; font-family: Roboto, sans-serif; font-size: 12px; font-weight: 200;" fill="rgb(50, 49, 63)" stroke="none" stroke-width="1px">1M</text><text x="76.74287968798377" y="0" dx="0em" dy="0.95em" style="text-anchor: middle; visibility: inherit; font-family: Roboto, sans-serif; font-size: 12px; font-weight: 200;" fill="rgb(50, 49, 63)" stroke="none" stroke-width="1px">2M</text><text x="112.31824962325297" y="0" dx="0em" dy="0.95em" style="text-anchor: middle; visibility: inherit; font-family: Roboto, sans-serif; font-size: 12px; font-weight: 200;" fill="rgb(50, 49, 63)" stroke="none" stroke-width="1px">3M</text><text x="147.89361955852215" y="0" dx="0em" dy="0.95em" style="text-anchor: middle; visibility: inherit; font-family: Roboto, sans-serif; font-size: 12px; font-weight: 200;" fill="rgb(50, 49, 63)" stroke="none" stroke-width="1px">4M</text><text x="183.46898949379133" y="0" dx="0em" dy="0.95em" style="text-anchor: middle; visibility: inherit; font-family: Roboto, sans-serif; font-size: 12px; font-weight: 200;" fill="rgb(50, 49, 63)" stroke="none" stroke-width="1px">5M</text><text x="219.0443594290605" y="0" dx="0em" dy="0.95em" style="text-anchor: middle; visibility: inherit; font-family: Roboto, sans-serif; font-size: 12px; font-weight: 200;" fill="rgb(50, 49, 63)" stroke="none" stroke-width="1px">6M</text><text x="254.6197293643297" y="0" dx="0em" dy="0.95em" style="text-anchor: middle; visibility: hidden; font-family: Roboto, sans-serif; font-size: 12px; font-weight: 200;" fill="rgb(50, 49, 63)" stroke="none" stroke-width="1px">7M</text></g><line x1="0" y1="0" x2="257.65625" y2="0" fill="rgb(0, 0, 0)" stroke="rgb(204, 204, 204)" stroke-width="1px"></line></g></g></g></g></svg>